OpenSim_Sub05_CSStiffKnee_LCS.mot
version=1
nRows=44
nColumns=11
inDegrees=no
endheader
time	Bot_Shank	2nd_Bot_Shank	2nd_Top_Shank	Top_Shank	Bot_Thigh	Med_Thigh	Top_Thigh	BNOx	BNOy	BNOZ
56.24000000	11231.79888739	11281.66375359	11726.66322056	11359.73173165	12121.62796623	12055.81198263	11679.99745587	208.96651116	-85.49341877	-92.21711747
56.25000000	11231.66388803	11287.16830182	11737.69651281	11364.30588518	12104.74146173	12056.92432077	11691.14746759	210.46619356	-85.22457161	-47.71499495
56.26000000	11231.51026535	11293.47971192	11749.95678445	11369.47328361	12092.34538706	12058.10184107	11702.18531673	211.90912423	-84.73920097	-1.06251066
56.27000000	11231.34716047	11300.07443169	11762.89158398	11374.89090115	12083.59379128	12059.23225557	11713.13223428	213.32061819	-84.07070510	44.41994820
56.28000000	11231.18371455	11306.42890894	11775.94845987	11380.21571203	12077.64072345	12060.20327631	11724.00945122	214.72599044	-83.25248226	85.41199441
56.29000000	11231.02906873	11312.01959146	11788.57496060	11385.10469047	12073.64023261	12060.90261534	11734.83819856	216.15055598	-82.31793071	118.59324078
56.30000000	11230.89209891	11316.37801872	11800.25060696	11389.24604836	12070.80437193	12061.23299604	11745.63217878	217.61501725	-81.29995875	141.08019703
56.31000000	11230.77972065	11319.44289209	11810.69121487	11392.55886337	12068.77388115	12061.20808503	11756.34945420	219.10598696	-80.22785366	153.21831422
56.32000000	11230.69797089	11321.33540407	11819.71850850	11395.06568791	12067.38163862	12060.89127399	11766.92314898	220.59479873	-79.12927977	156.80026452
56.33000000	11230.65288242	11322.17760800	11827.15471155	11396.78956248	12066.46142900	12060.34618916	11777.28626971	222.05271409	-78.03189376	153.62554658
56.34000000	11230.65048801	11322.09155720	11832.82204773	11397.75352758	12065.84703693	12059.63645677	11787.37182293	223.45099456	-76.96335230	145.49365908
56.35000000	11230.69682047	11321.19930500	11836.54274076	11397.98062371	12065.37224708	12058.82570307	11797.11281520	224.76090169	-75.95131208	134.20410067
56.36000000	11230.79791257	11319.62290472	11838.13901436	11397.49389137	12064.87084410	12057.97755429	11806.44225309	225.95369699	-75.02342976	121.55637002
56.37000000	11230.95979711	11317.48440968	11837.43309223	11396.31637105	12064.17661266	12057.15563667	11815.29314315	227.00064201	-74.20736201	109.34996579
56.38000000	11231.18657849	11314.90595060	11834.29844404	11394.47829198	12063.14710071	12056.41865152	11823.59116100	227.87632158	-73.52774583	99.21269738
56.39000000	11231.46810904	11312.01023008	11828.98727911	11392.06301241	12061.81548197	12055.78890173	11831.20780201	228.57988169	-72.98690080	91.50348311
56.40000000	11231.78785331	11308.92020703	11821.92155898	11389.17770320	12060.29364612	12055.27237632	11837.99027781	229.12147678	-72.57714377	86.01252061
56.41000000	11232.12924570	11305.75884159	11813.52404591	11385.92964755	12058.69385413	12054.87498738	11843.78568549	229.51131319	-72.29074442	82.52732483
56.42000000	11232.47572061	11302.64909389	11804.21750217	11382.42612864	12057.12836699	12054.60264699	11848.44112213	229.75959727	-72.11997242	80.83541075
56.43000000	11232.81071246	11299.71392406	11794.42469000	11378.77442966	12055.70944567	12054.46126722	11851.80368482	229.87653535	-72.05709746	80.72429333
56.44000000	11233.11765565	11297.07629224	11784.56837168	11375.08183380	12054.54935116	12054.45676016	11853.72047063	229.87233378	-72.09438920	81.98148754
56.45000000	11233.37998458	11294.85915856	11775.07130947	11371.45562424	12053.76034443	12054.59503787	11854.03857665	229.75719890	-72.22411732	84.39450834
56.46000000	11233.58113366	11293.18548316	11766.35626562	11368.00308417	12053.45468647	12054.88201244	11852.60509997	229.54133707	-72.43855149	87.75087070
56.47000000	11233.70453730	11292.17822616	11758.84600240	11364.83149678	12053.74463826	12055.32359594	11849.26713767	229.23495462	-72.72996139	91.83808960
56.48000000	11233.73362990	11291.96034769	11752.96328206	11362.04814526	12054.74246077	12055.92570046	11843.87178683	228.84825790	-73.09061671	96.44367998
56.49000000	11233.65184586	11292.65480790	11749.13086687	11359.76031280	12056.56041499	12056.69423807	11836.26614453	228.39145326	-73.51278710	101.35515683
56.50000000	11233.44261960	11294.38456690	11747.77151909	11358.07528258	12059.31076190	12057.63512084	11826.29730787	227.87474703	-73.98874224	106.36003511
56.51000000	11233.08938553	11297.27258485	11749.30800098	11357.10033779	12063.10576248	12058.75426086	11813.81237392	227.30834556	-74.51075182	111.24582978
56.52000000	11232.58617491	11301.39319507	11754.05870814	11356.92191785	12068.02620622	12060.01911844	11798.73842406	226.70254587	-75.07021195	115.81188758
56.53000000	11232.00533653	11306.46134856	11761.57070131	11357.47241377	12073.92028865	12061.11297124	11781.59367356	226.06831502	-75.65206268	119.94499933
56.54000000	11231.45432132	11312.03092005	11771.04532665	11358.61517159	12080.53195600	12061.59172545	11763.16128565	225.41692043	-76.23835041	123.57114860
56.55000000	11231.04074578	11317.65502451	11781.68229962	11360.21321165	12087.60466277	12061.01068644	11744.22567332	224.75963090	-76.81110789	126.61650379
56.56000000	11230.87222642	11322.88677689	11792.68133565	11362.12955431	12094.88186343	12058.92515959	11725.57124956	224.10771527	-77.35236787	129.00723332
56.57000000	11231.05637972	11327.27929214	11803.24215019	11364.22721992	12102.10701249	12054.89045025	11707.98242737	223.47244236	-77.84416311	130.66950562
56.58000000	11231.70082220	11330.38568522	11812.56445868	11366.36922884	12109.02356441	12048.46186381	11692.24361972	222.86508098	-78.26852636	131.52948910
56.59000000	11232.89051344	11331.79621470	11819.90840443	11368.42532874	12115.38330862	12039.27149419	11679.07807796	222.29586183	-78.60925757	131.54336013
56.60000000	11234.47651184	11331.48459574	11825.15796488	11370.33471757	12121.02408093	12027.74417070	11668.57764412	221.76429843	-78.86840047	130.97708565
56.61000000	11236.17188660	11329.65076229	11828.56514614	11372.07756524	12125.83447996	12014.77239403	11660.46166265	221.26358174	-79.05876164	130.27939240
56.62000000	11237.68792347	11326.49757212	11830.38671101	11373.63457119	12129.70376040	12001.25470943	11654.44466350	220.78682100	-79.19328679	129.90136928
56.63000000	11238.73590818	11322.22788302	11830.87942230	11374.98643486	12132.52117698	11988.08966216	11650.24117662	220.32712545	-79.28492160	130.29410517
56.64000000	11239.02712646	11317.04455278	11830.30004283	11376.11385572	12134.17598439	11976.17579748	11647.56573197	219.87760433	-79.34661178	131.90868896
56.65000000	11238.27286405	11311.15043918	11828.90533539	11376.99753321	12134.55743736	11966.41166064	11646.13285950	219.43136688	-79.39130302	135.19620954
56.66000000	11236.18440667	11304.74840001	11826.95206281	11377.61816678	12133.55479057	11959.69579690	11645.65708919	218.98152235	-79.43194101	140.60775580
56.67000000	11232.47304006	11298.04129306	11824.69698789	11377.95645587	12131.05729875	11956.92675152	11645.85295098	218.52117996	-79.48147146	148.59441662
